<?xml version="1.0" encoding="utf-8"?>
<!-- Generator: Adobe Illustrator 25.0.0, SVG Export Plug-In . SVG Version: 6.00 Build 0)  -->
<svg version="1.1" baseProfile="tiny" xmlns="http://www.w3.org/2000/svg" xmlns:xlink="http://www.w3.org/1999/xlink" x="0px"
	 y="0px" viewBox="0 0 927.7 579.6" overflow="visible" xml:space="preserve">
<g id="Fingers">
	<path d="M-655.5,271.3c-4.6,1.1-8.8,7.9-10.2,12.1c-2.1,6.1-2.2,15.6-0.6,21.8c3.1-1.1,6.1-3.9,8.9-5.6c3.1-1.9,6.2-3.7,9.5-5.2
		c7.6-3.5,16-4.6,24.3-5c8.6-0.4,16.6-0.7,24.8,2.2c0,0.6,0,1.2,0,1.9c0-2.2-26.2,3.8-28.6,5c-4.9,2.5-9.8,5-14.6,7.6
		c1.3-0.5-0.2-8.4-0.7-9.3c-6.7,4-4.9,14.6-3,20.6c0.3,1.2,1.4,5.9,2.7,6.3c1.1,0.4,4.7-3.5,5.6-4.3c7.4-6.1,15.4-11.8,24.8-14.3
		c15.2-4,30.6,1.6,42.5,11.2c12.2,9.9,18.8,22.9,25,36.9c0.1,0.1,0.1,0.3,0.2,0.4c2.9,6.3,5.9,12.6,8.7,19
		c-2.2-6.6-3.1-13.8-5.2-20.5c-2-6.2-4.5-12.1-7.2-18c-2.6-5.6-5-12.4-8.5-17.5c-3-4.4-7.3-8.5-10.7-12.7
		c-9.1-11.1-23.3-21.1-37.5-23.6c-17.6-3.1-37.1-1.1-52.6,8.4c-0.7-1.3-1-3-1.3-4.6c-0.2-1.2-0.4-2.5-0.2-3.7
		C-659.4,276.9-656.1,274.6-655.5,271.3z"/>
</g>
<g id="Finger">
	<path d="M-422.4,289.1c2.5-1.6,5-3.3,7.4-5.1c7-5.1-8.4-14.2-11.8-16.1c-11.1-6.1-25.7-5.5-36.3,1.1c-8.2,5.1-15.8,11.1-23.8,16.6
		c-6.9,4.8-14.3,9.3-22.5,10.5c-9.8,1.4-19.6-1.9-28.6-6.1c-7.2-3.4-14.1-7.5-20.7-12.1c7.1,8.9,14.5,16.1,24.8,21.2
		c10.3,4.6,22.1,6,33.2,3.9c15.3-2.8,28.7-11.7,41.2-20.8c3.6-2.6,7.1-5.2,11.2-6.8c4.1-1.6,8.9-2,12.8-0.2
		C-430.4,277.6-425.6,285-422.4,289.1z"/>
</g>
<g id="Arm">
	<path d="M-446.8,286.1c-0.2,0.3,3.7,6.3,4.1,7c1.2,2.7,2.8,6.6,1.2,9.5c-1.7,3.2-7.2,5.7-9.9,8c-4.4,3.5-8.6,7.3-12.3,11.6
		c-2.8,3.3-5.4,6.8-7.5,10.5c-1.7,3-5.4,8.4-5.4,12c-3.5,10-4.4,22.6-0.9,32.7c5.7-1.4,11.3-2.3,17.2-2c0.7,0,1.3,0.1,1.9,0.3
		c0.6,0.3,1.2,0.7,1.7,1.1c1.5,1.3,3.1,2.7,4.3,4.4c2.1,3.1,1.9,8.2,2.6,11.8c0.9,4.9,2,9.8,3.2,14.7c2.4,9.7,5.5,19.3,9.1,28.7
		c7.9,20.1,20.4,37.4,31.6,55.7c-23.8-20.1-42.3-49.8-54.5-78.2c-1-2.2-2.5-6.6-5.2-7.1c-2.5-0.5-6.1,2.4-8.4,3.2
		c-31.2,10.4-66.6,12.3-97.2-1.1c5.4,2.4,15,1.4,20.9,1.5c7.2,0.2,14.4-0.1,21.6-0.8c13.8-1.3,27.3-4.9,40.4-9.3
		c1.5-0.5,3.3-1.3,3.7-2.8c0.6-2.2-2.1-5.6-2.9-7.8c-1.3-3.7-2.3-7.4-3-11.2c-1.6-8.8-1.6-18,0.3-26.8c3.3-15.5,12-29.7,24.4-39.6
		c6.2-5,18.9-9.2,18.6-18.4C-447.4,291.1-447.9,288.3-446.8,286.1z"/>
</g>
<g id="Tray_1">
	<polygon points="-284.7,243.4 -770.8,243.4 -711.3,263.8 -346.6,263.8 	"/>
	<polygon points="569.7,288.4 83.6,288.4 143.1,308.8 507.8,308.8 	"/>
</g>
<g id="Lid">
	<path d="M-409.4,52.5c0,0,18.5,10,18.5,10c-16.5,9.7-33,19.4-49.5,29.1c-36.3,21.3-72.7,42.7-109,64c-52.7,31-105.5,61.8-158,93.2
		c-6.4,3.8-4.7-25.6-4.6-29.1c1.6-49.2,16-94.8,51.7-130.1c18.1-17.9,40.4-29.7,61.3-43.9c-2.6-2-5.4-4-8.7-4.3
		c-3.6-0.3-7,1.6-9.8,3.8c-10.2,7.8-21.4,14.5-32.1,21.6c2.3-1.5,2.4-20.5,3.1-23.9c1.7-7.6,4.4-15.5,10.4-20.8
		c7.5-6.6,17.8-7.1,27.2-5.4c7.9,1.5,21.6,5,26.8,11.3c-2.3,1.7-6.8,4.2-9.7,4.5c3.3-0.3,5.8,3,8.8,4.3c4,1.7,8.4-0.1,12.5-1.6
		c20.8-7.9,44-8.3,66-7.4c11.1,0.4,22.2,1.5,33.2,3.3c5.7,0.9,11.4,1.9,17,3.2c4.5,1,11.2,4.2,15.7,3.9c-22.8,1.7-46.5-2.6-69.7-1.4
		c-51.7,2.8-101.9,21.2-138.6,58.7c-15.6,15.9-27.2,35.6-34.8,56.5c-7.1,19.5-14.1,45.4-10.8,66.2c7.3-0.7,23-9.4,26.4-16.5
		c0.8-1.7,1-3.6,1.1-5.5c3.4-44.8,20.2-86.1,52.8-118.1c-9.3,16.6-17.7,34.5-23.3,52.8c-3.4,11.3-6,23-6.3,34.8
		c-0.1,4.7-0.6,12.6,1.8,16.9c3.4,6.1,8,1.2,13.2-1.9c59.2-34.7,118.1-69.8,177.3-104.5C-436.1,68.2-422.8,60.3-409.4,52.5z"/>
</g>
<g id="Lid2">
	<path d="M160.7,292.2c-6.4,3.8-4.7-25.6-4.6-29.1c1.6-49.2,16-94.8,51.7-130.1c18.1-17.9,40.4-29.7,61.3-43.9c-2.6-2-5.4-4-8.7-4.3
		c-3.6-0.3-7,1.6-9.8,3.8c-10.2,7.8-21.4,14.5-32.1,21.6c2.3-1.5,2.4-20.5,3.1-23.9c1.7-7.6,4.4-15.5,10.4-20.8
		c7.5-6.6,17.8-7.1,27.2-5.4c7.9,1.5,21.6,5,26.8,11.3c-2.3,1.7-6.8,4.2-9.7,4.5c3.3-0.3,5.8,3,8.8,4.3c4,1.7,8.4-0.1,12.5-1.6
		c20.8-7.9,44-8.3,66-7.4c11.1,0.4,22.2,1.5,33.2,3.3c5.7,0.9,11.4,1.9,17,3.2c4.5,1,11.2,4.2,15.7,3.9c-22.8,1.7-46.5-2.6-69.7-1.4
		c-51.7,2.8-101.9,21.2-138.6,58.7c-15.6,15.9-27.2,35.6-34.8,56.5c-7.1,19.5-14.1,45.4-10.8,66.2c7.3-0.7,23-9.4,26.4-16.5
		c0.8-1.7,1-3.6,1.1-5.5c3.4-44.8,20.2-86.1,52.8-118.1c-9.3,16.6-17.7,34.5-23.3,52.8c-3.4,11.3-6,23-6.3,34.8
		c-0.1,4.7-0.6,12.6,1.8,16.9c3.4,6.1,8,1.2,13.2-1.9c59.2-34.7,118.1-69.8,177.3-104.5c13.4-7.8,26.7-15.7,40.1-23.5
		c0,0,18.5,10,18.5,10c-16.5,9.7-33,19.4-49.5,29.1c-36.3,21.3-72.7,42.7-109,64C265.9,230,213.2,260.9,160.7,292.2"/>
</g>
<g id="House">
	<path fill="#F59A18" stroke="#000000" stroke-width="0.25" stroke-miterlimit="10" d="M-448.6,235.4c-8.8,0-17.5,0-26.3,0
		c-1.8,0-3.7,0-5.5,0c0-2.2,0-4.3,0-6.5c0-17.9,0-35.7,0-53.6c16-13.6,31.9-27.1,47.9-40.7l47.8,39.7v61.1h-32.9v-28
		c-10.3,0-20.5-0.1-30.8-0.1C-448.4,216.7-448.5,226.1-448.6,235.4z"/>
</g>
<g id="House2">
	<path fill="#F59A18" stroke="#000000" stroke-width="0.25" stroke-miterlimit="10" d="M413.3,278.2c-8.8,0-17.5,0-26.3,0
		c-1.8,0-3.7,0-5.5,0c0-2.2,0-4.3,0-6.5c0-17.9,0-35.7,0-53.6c16-13.6,31.9-27.1,47.9-40.7l47.8,39.7v61.1h-32.9v-28
		c-10.3,0-20.5-0.1-30.8-0.1C413.4,259.5,413.4,268.9,413.3,278.2z"/>
</g>
<g id="Roof">
	<polygon fill="#010202" points="-371.5,177.4 -363.7,169.5 -432.5,112.2 -501.3,169.5 -494.3,177.4 -432.5,126.5 	"/>
	<path fill="#010202" d="M-54.8,369.3"/>
	<polygon fill="#010202" points="490.4,220.7 498.1,212.8 429.3,155.5 360.6,212.8 367.5,220.7 429.3,169.8 	"/>
</g>
<g id="Layer_16">
</g>
<g id="Chiminey">
	<polygon points="-480.4,144.8 -480.4,120.9 -463.5,120.9 -463.5,130.4 	"/>
	<polygon points="385.7,187.9 385.7,164.1 402.6,164.1 402.6,173.5 	"/>
</g>
<g id="Layer_17">
</g>
<g id="Button">
	<path d="M-501.3,457.9c-1-3-1.9-6-2.9-9.1c-1.8,0.7-3.5,1.6-5.4,2.3c-2.4,0.8-4.9,0.8-7.4,0.9c-2.7,0.2-5.5,0.4-8.2,0.6
		c-1.7,0.1-2.4-0.5-3.2-2c-1-2.1-2-4.3-3.2-6.2c-1.7-2.7-4-4.4-6.5-6.3c-0.8-0.6-1.5-1.4-2.4-1.7c-0.5-0.2-1.1-0.2-1.6-0.2
		c-1.6,0-3.1-0.2-4.3,1.1c-0.9,1-1.5,2.3-2.2,3.4c-1.2,1.7-2.4,3.4-2.9,5.4c-0.5,2.1,0.1,4.2,0.4,6.3c0.4,2.2,0.8,4.4,1.1,6.6
		c0.4,2.3,0.8,4.5,1.2,6.8c0.2,1.1,0.4,2.3,0.6,3.4c0.2,1,0.7,2.4,0.6,3.4c0.4-2.8,0.1-5.6,0.4-8.4c0.2-2,0.9-4.1,2.2-5.7
		c0.5-0.7,1.3-1.5,2.1-1.4c1,0.1,2.4,1.2,3.1,1.8c0.6,0.5,1,1.1,1.5,1.8c1.7,2.3,3.1,4.8,4.3,7.4c1.5,3.4,1,7.4,1,11
		c0,0.3,0,0.6-0.1,0.9c-0.1,0.2-0.3,0.4-0.4,0.6c-0.3,0.3-3.7,3.7-3.6,3.8c0.8,1,1.3,2.2,2.7,2.2c1,0,2,0,2.9,0c0.3,0,0.6,0,0.8-0.1
		c0.3-0.1,0.6-0.3,0.8-0.5c2.2-1.6,3.7-4,4.8-6.5c0.2-0.4,0.4-0.9,0.5-1.4c0.1-0.5,0.1-0.9,0.1-1.4c-0.1-3.2-0.2-6.4-0.3-9.6
		c0-1.6-0.1-3.2-0.1-4.8c0-0.9-0.4-1.9,0.4-2.2c0.7-0.3,2-0.2,2.8-0.3c1.5-0.2,3-0.3,4.5-0.4C-511.8,458.9-506.5,458.4-501.3,457.9z
		"/>
</g>
<g id="Home">
	<text transform="matrix(1 0 0 1 -905.5576 416.8423)" fill="#010202" font-family="'piron'" font-size="120px">H</text>
	<text transform="matrix(1 0 0 1 -827.3163 416.8423)" fill="#010202" font-family="'piron'" font-size="120px">o</text>
	<text transform="matrix(1 0 0 1 -752.3163 416.8423)" fill="#010202" font-family="'piron'" font-size="120px">m</text>
	<text transform="matrix(1 0 0 1 -640.7158 416.8423)" fill="#010202" font-family="'piron'" font-size="120px">e</text>
	<g id="Layer_14">
		<text transform="matrix(1 0 0 1 106.1171 406.32)" fill="#010202" font-family="'akaDora'" font-size="120px">H</text>
		<text transform="matrix(1 0 0 1 211.8203 406.32)" fill="#010202" font-family="'akaDora'" font-size="120px">o</text>
		<text transform="matrix(1 0 0 1 253.1288 406.32)" fill="#010202" font-family="'akaDora'" font-size="120px">m</text>
		<text transform="matrix(1 0 0 1 321.1562 406.32)" fill="#010202" font-family="'akaDora'" font-size="120px">e</text>
	</g>
</g>
<g id="Chef">
	<text transform="matrix(1 0 0 1 -442.897 416.842)" fill="#F59A18" font-family="'piron'" font-size="120px">C</text>
	<text transform="matrix(1 0 0 1 -357.2164 416.842)" fill="#F59A18" font-family="'piron'" font-size="120px">h</text>
	<text transform="matrix(1 0 0 1 -285.4576 416.842)" fill="#F59A18" font-family="'piron'" font-size="120px">e</text>
	<text transform="matrix(1 0 0 1 -208.0572 416.842)" fill="#F59A18" font-family="'piron'" font-size="120px">f</text>
	<text transform="matrix(1 0 0 1 354.9942 411.4949)" fill="#F59A18" font-family="'akaDora'" font-size="120px">C</text>
	<text transform="matrix(1 0 0 1 452.8458 411.4949)" fill="#F59A18" font-family="'akaDora'" font-size="120px">h</text>
	<text transform="matrix(1 0 0 1 496.3809 411.4949)" fill="#F59A18" font-family="'akaDora'" font-size="120px">e</text>
	<text transform="matrix(1 0 0 1 534.7598 411.4949)" fill="#F59A18" font-family="'akaDora'" font-size="120px">f</text>
</g>
</svg>
