<?xml version="1.0" encoding="UTF-8"?>
<svg overflow="visible" baseProfile="tiny" version="1.1" viewBox="0 0 927.7 579.6" xml:space="preserve" xmlns="http://www.w3.org/2000/svg">

	<path d="m-655.5 271.3c-4.6 1.1-8.8 7.9-10.2 12.1-2.1 6.1-2.2 15.6-0.6 21.8 3.1-1.1 6.1-3.9 8.9-5.6 3.1-1.9 6.2-3.7 9.5-5.2 7.6-3.5 16-4.6 24.3-5 8.6-0.4 16.6-0.7 24.8 2.2v1.9c0-2.2-26.2 3.8-28.6 5-4.9 2.5-9.8 5-14.6 7.6 1.3-0.5-0.2-8.4-0.7-9.3-6.7 4-4.9 14.6-3 20.6 0.3 1.2 1.4 5.9 2.7 6.3 1.1 0.4 4.7-3.5 5.6-4.3 7.4-6.1 15.4-11.8 24.8-14.3 15.2-4 30.6 1.6 42.5 11.2 12.2 9.9 18.8 22.9 25 36.9 0.1 0.1 0.1 0.3 0.2 0.4 2.9 6.3 5.9 12.6 8.7 19-2.2-6.6-3.1-13.8-5.2-20.5-2-6.2-4.5-12.1-7.2-18-2.6-5.6-5-12.4-8.5-17.5-3-4.4-7.3-8.5-10.7-12.7-9.1-11.1-23.3-21.1-37.5-23.6-17.6-3.1-37.1-1.1-52.6 8.4-0.7-1.3-1-3-1.3-4.6-0.2-1.2-0.4-2.5-0.2-3.7 0-3.5 3.3-5.8 3.9-9.1z"/>


	<path d="m-422.4 289.1c2.5-1.6 5-3.3 7.4-5.1 7-5.1-8.4-14.2-11.8-16.1-11.1-6.1-25.7-5.5-36.3 1.1-8.2 5.1-15.8 11.1-23.8 16.6-6.9 4.8-14.3 9.3-22.5 10.5-9.8 1.4-19.6-1.9-28.6-6.1-7.2-3.4-14.1-7.5-20.7-12.1 7.1 8.9 14.5 16.1 24.8 21.2 10.3 4.6 22.1 6 33.2 3.9 15.3-2.8 28.7-11.7 41.2-20.8 3.6-2.6 7.1-5.2 11.2-6.8s8.9-2 12.8-0.2c5.1 2.4 9.9 9.8 13.1 13.9z"/>


	<path d="m-446.8 286.1c-0.2 0.3 3.7 6.3 4.1 7 1.2 2.7 2.8 6.6 1.2 9.5-1.7 3.2-7.2 5.7-9.9 8-4.4 3.5-8.6 7.3-12.3 11.6-2.8 3.3-5.4 6.8-7.5 10.5-1.7 3-5.4 8.4-5.4 12-3.5 10-4.4 22.6-0.9 32.7 5.7-1.4 11.3-2.3 17.2-2 0.7 0 1.3 0.1 1.9 0.3 0.6 0.3 1.2 0.7 1.7 1.1 1.5 1.3 3.1 2.7 4.3 4.4 2.1 3.1 1.9 8.2 2.6 11.8 0.9 4.9 2 9.8 3.2 14.7 2.4 9.7 5.5 19.3 9.1 28.7 7.9 20.1 20.4 37.4 31.6 55.7-23.8-20.1-42.3-49.8-54.5-78.2-1-2.2-2.5-6.6-5.2-7.1-2.5-0.5-6.1 2.4-8.4 3.2-31.2 10.4-66.6 12.3-97.2-1.1 5.4 2.4 15 1.4 20.9 1.5 7.2 0.2 14.4-0.1 21.6-0.8 13.8-1.3 27.3-4.9 40.4-9.3 1.5-0.5 3.3-1.3 3.7-2.8 0.6-2.2-2.1-5.6-2.9-7.8-1.3-3.7-2.3-7.4-3-11.2-1.6-8.8-1.6-18 0.3-26.8 3.3-15.5 12-29.7 24.4-39.6 6.2-5 18.9-9.2 18.6-18.4-0.2-2.6-0.7-5.4 0.4-7.6z"/>


	<polygon points="-284.7 243.4 -770.8 243.4 -711.3 263.8 -346.6 263.8"/>
	<polygon points="569.7 288.4 83.6 288.4 143.1 308.8 507.8 308.8"/>


	<path d="m-409.4 52.5s18.5 10 18.5 10l-49.5 29.1c-36.3 21.3-72.7 42.7-109 64-52.7 31-105.5 61.8-158 93.2-6.4 3.8-4.7-25.6-4.6-29.1 1.6-49.2 16-94.8 51.7-130.1 18.1-17.9 40.4-29.7 61.3-43.9-2.6-2-5.4-4-8.7-4.3-3.6-0.3-7 1.6-9.8 3.8-10.2 7.8-21.4 14.5-32.1 21.6 2.3-1.5 2.4-20.5 3.1-23.9 1.7-7.6 4.4-15.5 10.4-20.8 7.5-6.6 17.8-7.1 27.2-5.4 7.9 1.5 21.6 5 26.8 11.3-2.3 1.7-6.8 4.2-9.7 4.5 3.3-0.3 5.8 3 8.8 4.3 4 1.7 8.4-0.1 12.5-1.6 20.8-7.9 44-8.3 66-7.4 11.1 0.4 22.2 1.5 33.2 3.3 5.7 0.9 11.4 1.9 17 3.2 4.5 1 11.2 4.2 15.7 3.9-22.8 1.7-46.5-2.6-69.7-1.4-51.7 2.8-101.9 21.2-138.6 58.7-15.6 15.9-27.2 35.6-34.8 56.5-7.1 19.5-14.1 45.4-10.8 66.2 7.3-0.7 23-9.4 26.4-16.5 0.8-1.7 1-3.6 1.1-5.5 3.4-44.8 20.2-86.1 52.8-118.1-9.3 16.6-17.7 34.5-23.3 52.8-3.4 11.3-6 23-6.3 34.8-0.1 4.7-0.6 12.6 1.8 16.9 3.4 6.1 8 1.2 13.2-1.9 59.2-34.7 118.1-69.8 177.3-104.5 13.4-8 26.7-15.9 40.1-23.7z"/>


	<path d="m160.7 292.2c-6.4 3.8-4.7-25.6-4.6-29.1 1.6-49.2 16-94.8 51.7-130.1 18.1-17.9 40.4-29.7 61.3-43.9-2.6-2-5.4-4-8.7-4.3-3.6-0.3-7 1.6-9.8 3.8-10.2 7.8-21.4 14.5-32.1 21.6 2.3-1.5 2.4-20.5 3.1-23.9 1.7-7.6 4.4-15.5 10.4-20.8 7.5-6.6 17.8-7.1 27.2-5.4 7.9 1.5 21.6 5 26.8 11.3-2.3 1.7-6.8 4.2-9.7 4.5 3.3-0.3 5.8 3 8.8 4.3 4 1.7 8.4-0.1 12.5-1.6 20.8-7.9 44-8.3 66-7.4 11.1 0.4 22.2 1.5 33.2 3.3 5.7 0.9 11.4 1.9 17 3.2 4.5 1 11.2 4.2 15.7 3.9-22.8 1.7-46.5-2.6-69.7-1.4-51.7 2.8-101.9 21.2-138.6 58.7-15.6 15.9-27.2 35.6-34.8 56.5-7.1 19.5-14.1 45.4-10.8 66.2 7.3-0.7 23-9.4 26.4-16.5 0.8-1.7 1-3.6 1.1-5.5 3.4-44.8 20.2-86.1 52.8-118.1-9.3 16.6-17.7 34.5-23.3 52.8-3.4 11.3-6 23-6.3 34.8-0.1 4.7-0.6 12.6 1.8 16.9 3.4 6.1 8 1.2 13.2-1.9 59.2-34.7 118.1-69.8 177.3-104.5 13.4-7.8 26.7-15.7 40.1-23.5 0 0 18.5 10 18.5 10l-49.5 29.1c-36.3 21.3-72.7 42.7-109 64-52.8 30.8-105.5 61.7-158 93"/>


	<path d="m-448.6 235.4h-26.3-5.5v-6.5-53.6c16-13.6 31.9-27.1 47.9-40.7l47.8 39.7v61.1h-32.9v-28c-10.3 0-20.5-0.1-30.8-0.1 0 9.4-0.1 18.8-0.2 28.1z" fill="#F59A18" stroke="#000" stroke-miterlimit="10" stroke-width=".25"/>


	<path d="m413.3 278.2h-26.3-5.5v-6.5-53.6c16-13.6 31.9-27.1 47.9-40.7l47.8 39.7v61.1h-32.9v-28c-10.3 0-20.5-0.1-30.8-0.1-0.1 9.4-0.1 18.8-0.2 28.1z" fill="#F59A18" stroke="#000" stroke-miterlimit="10" stroke-width=".25"/>

<g fill="#010202">
	<polygon points="-371.5 177.4 -363.7 169.5 -432.5 112.2 -501.3 169.5 -494.3 177.4 -432.5 126.5"/>
	<path d="m-54.8 369.3"/>
	<polygon points="490.4 220.7 498.1 212.8 429.3 155.5 360.6 212.8 367.5 220.7 429.3 169.8"/>
</g>


	<polygon points="-480.4 144.8 -480.4 120.9 -463.5 120.9 -463.5 130.4"/>
	<polygon points="385.7 187.9 385.7 164.1 402.6 164.1 402.6 173.5"/>



	<path d="m-501.3 457.9c-1-3-1.9-6-2.9-9.1-1.8 0.7-3.5 1.6-5.4 2.3-2.4 0.8-4.9 0.8-7.4 0.9-2.7 0.2-5.5 0.4-8.2 0.6-1.7 0.1-2.4-0.5-3.2-2-1-2.1-2-4.3-3.2-6.2-1.7-2.7-4-4.4-6.5-6.3-0.8-0.6-1.5-1.4-2.4-1.7-0.5-0.2-1.1-0.2-1.6-0.2-1.6 0-3.1-0.2-4.3 1.1-0.9 1-1.5 2.3-2.2 3.4-1.2 1.7-2.4 3.4-2.9 5.4-0.5 2.1 0.1 4.2 0.4 6.3 0.4 2.2 0.8 4.4 1.1 6.6 0.4 2.3 0.8 4.5 1.2 6.8 0.2 1.1 0.4 2.3 0.6 3.4 0.2 1 0.7 2.4 0.6 3.4 0.4-2.8 0.1-5.6 0.4-8.4 0.2-2 0.9-4.1 2.2-5.7 0.5-0.7 1.3-1.5 2.1-1.4 1 0.1 2.4 1.2 3.1 1.8 0.6 0.5 1 1.1 1.5 1.8 1.7 2.3 3.1 4.8 4.3 7.4 1.5 3.4 1 7.4 1 11 0 0.3 0 0.6-0.1 0.9-0.1 0.2-0.3 0.4-0.4 0.6-0.3 0.3-3.7 3.7-3.6 3.8 0.8 1 1.3 2.2 2.7 2.2h2.9c0.3 0 0.6 0 0.8-0.1 0.3-0.1 0.6-0.3 0.8-0.5 2.2-1.6 3.7-4 4.8-6.5 0.2-0.4 0.4-0.9 0.5-1.4s0.1-0.9 0.1-1.4l-0.3-9.6c0-1.6-0.1-3.2-0.1-4.8 0-0.9-0.4-1.9 0.4-2.2 0.7-0.3 2-0.2 2.8-0.3 1.5-0.2 3-0.3 4.5-0.4 5.4-0.5 10.7-1 15.9-1.5z"/>

<g fill="#010202" font-size="120px">
	<text transform="translate(-905.56 416.84)" font-family="'piron'">H</text>
	<text transform="translate(-827.32 416.84)" font-family="'piron'">o</text>
	<text transform="translate(-752.32 416.84)" font-family="'piron'">m</text>
	<text transform="translate(-640.72 416.84)" font-family="'piron'">e</text>
	<g font-family="'akaDora'">
		<text transform="translate(106.12 406.32)">H</text>
		<text transform="translate(211.82 406.32)">o</text>
		<text transform="translate(253.13 406.32)">m</text>
		<text transform="translate(321.16 406.32)">e</text>
	</g>
</g>
<g fill="#F59A18" font-size="120px">
	<text transform="translate(-442.9 416.84)" font-family="'piron'">C</text>
	<text transform="translate(-357.22 416.84)" font-family="'piron'">h</text>
	<text transform="translate(-285.46 416.84)" font-family="'piron'">e</text>
	<text transform="translate(-208.06 416.84)" font-family="'piron'">f</text>
	<text transform="translate(354.99 411.49)" font-family="'akaDora'">C</text>
	<text transform="translate(452.85 411.49)" font-family="'akaDora'">h</text>
	<text transform="translate(496.38 411.49)" font-family="'akaDora'">e</text>
	<text transform="translate(534.76 411.49)" font-family="'akaDora'">f</text>
</g>
</svg>
